<svg xmlns="http://www.w3.org/2000/svg" viewBox="0 0 500 500">
    <rect x="195.935" y="163.672" width="4.8" height="76.6" style="stroke-width: 1px;"></rect>
    <path
        d="M 237.435 160.172 C 237.235 158.572 236.735 155.972 235.335 153.172 C 233.735 150.172 231.735 148.172 230.235 146.972 C 230.035 146.772 229.635 146.772 229.435 146.972 C 228.035 148.172 225.935 150.172 224.335 153.172 C 222.835 155.972 222.335 158.572 222.235 160.172 L 222.235 228.072 L 225.335 228.072 L 225.335 233.072 L 225.335 234.272 L 226.435 234.272 L 233.135 234.272 L 234.335 234.272 L 234.335 233.072 L 234.335 228.072 L 237.435 228.072 L 237.435 160.172 Z M 228.335 169.872 L 229.535 166.772 C 229.635 166.472 230.035 166.472 230.135 166.772 L 231.335 169.872 L 233.235 173.272 L 226.435 173.272 L 228.335 169.872 Z M 226.435 218.872 L 226.435 208.872 L 233.135 208.872 L 233.135 218.872 L 226.435 218.872 Z M 233.235 184.972 L 233.235 194.972 L 226.435 194.972 L 226.435 184.972 L 233.235 184.972 Z M 226.435 183.072 L 226.435 175.072 L 233.135 175.072 L 233.135 183.072 L 226.435 183.072 Z M 233.235 196.872 L 233.235 206.872 L 226.435 206.872 L 226.435 196.872 L 233.235 196.872 Z M 233.235 233.072 L 226.435 233.072 L 226.435 228.072 L 226.235 220.872 L 232.935 220.872 L 233.135 228.072 L 233.135 233.072 L 233.235 233.072 Z"
        style="stroke-width: 1px;"></path>
    <polygon points="234.335 240.272 225.435 240.272 226.535 236.572 233.135 236.572" style="stroke-width: 1px;">
    </polygon>
    <g transform="matrix(1, 0, 0, 1, 177.43483, 144.272125)">
        <polygon points="70.4,88.3 64.5,88.3 66,85.1 68.9,85.1  "></polygon>
    </g>
    <g transform="matrix(1, 0, 0, 1, 177.43483, 144.272125)">
        <polygon points="85.1,88.3 72.1,83.7 72.1,75.4 85.1,85.8  "></polygon>
    </g>
    <path
        d="M 246.435 182.172 L 241.435 172.772 C 241.135 172.172 240.135 172.372 240.135 173.072 L 240.135 227.972 L 249.535 227.972 L 249.535 185.972 C 249.535 184.072 248.235 182.472 246.435 182.172 Z M 248.135 187.972 L 246.035 187.972 L 246.035 184.272 L 246.235 184.272 C 247.335 184.272 248.235 185.172 248.235 186.272 L 248.235 187.972 L 248.135 187.972 Z"
        style="stroke-width: 1px;"></path>
    <rect x="198.335" y="167.172" width="27.1" height="9" style="stroke-width: 1px;"></rect>
</svg>