<?xml version="1.0" encoding="UTF-8"?>
<svg xmlns="http://www.w3.org/2000/svg" version="1.1" viewBox="-17.5 -10 135 135" width="32" height="32" aria-hidden="true">
  <circle cx="50" cy="57.5" r="61.5" fill="#111827" stroke="#38bdf8" stroke-width="2.25"/>
  <g transform="translate(50 57.5) scale(0.835) translate(-50 -57.5)" fill="#ffffff" stroke="none">
    <path d="m79.863 77.492h-1.1328l-6.1094-12.168v-7.7266c0-0.58594-0.23438-1.1484-0.64844-1.5625-0.41406-0.41406-0.97656-0.64453-1.5625-0.64453h-40.82c-0.58594 0-1.1484 0.23047-1.5625 0.64453-0.41406 0.41406-0.64844 0.97656-0.64844 1.5625v7.7266l-6.1094 12.168h-1.1328c-0.84766-0.015626-1.5586 0.625-1.6328 1.4648-0.023437 0.42578 0.12891 0.83984 0.42188 1.1484 0.28906 0.30859 0.69531 0.48047 1.1211 0.48047h5.7344c0.84375 0.019531 1.5586-0.62109 1.6328-1.4609 0.023438-0.42578-0.12891-0.83984-0.42187-1.1484-0.29297-0.30859-0.69922-0.48437-1.125-0.48437h-1.0469l5.7812-8.5859-0.003906 0.003906c0.26953 1.5938 1.6484 2.7617 3.2656 2.7617h11.293l-0.30859-2.6875c-0.17188-1.4727 0.29688-2.9453 1.2812-4.0469 0.98438-1.1055 2.3945-1.7383 3.8711-1.7383 1.4805 0 2.8906 0.63281 3.875 1.7383 0.98438 1.1016 1.4531 2.5742 1.2812 4.0469l-0.30859 2.6875h11.293-0.003906c1.6172 0 2.9961-1.168 3.2656-2.7617l5.7773 8.582h-0.96094c-0.84375-0.015626-1.5586 0.625-1.6328 1.4648-0.023438 0.42578 0.12891 0.83984 0.42187 1.1484 0.29297 0.30859 0.69922 0.48047 1.125 0.48047h5.8203c0.42578 0 0.83203-0.17188 1.1211-0.48047 0.29297-0.30859 0.44531-0.72266 0.42188-1.1484-0.074219-0.83984-0.78516-1.4805-1.6328-1.4648z"/>
    <path d="m52.91 77.492h-1.1836l1.0156-8.7891h-0.003907c0.09375-0.78125-0.15625-1.5625-0.67969-2.1484-0.52344-0.58984-1.2734-0.92578-2.0586-0.92578s-1.5352 0.33594-2.0586 0.92578c-0.52344 0.58594-0.77344 1.3672-0.67969 2.1484l1.0156 8.7891h-1.1875c-0.41016 0-0.80469 0.16406-1.0977 0.45312-0.28906 0.28906-0.45313 0.68359-0.45313 1.0938 0 0.41016 0.16406 0.80469 0.45313 1.0977 0.29297 0.28906 0.6875 0.45312 1.0977 0.44922h5.8203c0.41016 0.003906 0.80469-0.16016 1.0977-0.44922 0.28906-0.29297 0.45313-0.6875 0.45313-1.0977 0-0.41016-0.16406-0.80469-0.45313-1.0938-0.29297-0.28906-0.6875-0.45312-1.0977-0.45312z"/>
    <path d="m35.879 52.586h28.246-0.003906c0.53125 0 1.0352-0.23828 1.3711-0.64844 0.33594-0.41016 0.46875-0.94922 0.36328-1.4688l-0.51172-2.5352h0.003906c-0.13672-0.67188 0.12891-1.3594 0.67578-1.7695l0.86328-0.64062h0.003906c0.54688-0.41016 0.8125-1.0977 0.67578-1.7695l-1.1602-5.7422c-0.13281-0.67188-0.64453-1.207-1.3125-1.3711l-1.0352-0.25391v0.003906c-0.66406-0.16406-1.1797-0.69922-1.3125-1.3711l-0.44922-2.2344c-0.16406-0.82422-0.89062-1.4219-1.7344-1.4219h-9.5312v-6.5c0.98047-0.41406 1.6445-1.3438 1.7227-2.4023 0.039063-0.77734-0.23438-1.5352-0.75781-2.1055-0.52344-0.57422-1.2539-0.91406-2.0273-0.94141-1.3594-0.019531-2.5391 0.92578-2.8203 2.25-0.27734 1.3281 0.42187 2.668 1.6719 3.1992v6.5h-9.3828c-0.84375 0-1.5703 0.59766-1.7344 1.4219l-3.5586 17.684c-0.10547 0.51953 0.027344 1.0586 0.36328 1.4688 0.33594 0.41016 0.83984 0.64844 1.3711 0.64844zm14.121-15.031c2.0859 0 3.9688 1.2578 4.7656 3.1836 0.79688 1.9297 0.35547 4.1484-1.1172 5.6211-1.4766 1.4766-3.6953 1.918-5.6211 1.1211-1.9297-0.80078-3.1836-2.6797-3.1836-4.7656 0-2.8477 2.3086-5.1602 5.1562-5.1602z"/>
  </g>
</svg>
